<svg width="32" height="32" viewBox="0 0 32 32" fill="none" xmlns="http://www.w3.org/2000/svg">
<g clip-path="url(#clip0_63_14)">
<path d="M15.9 31.81C13.8112 31.81 11.7428 31.3984 9.81305 30.5987C7.88332 29.7991 6.13006 28.627 4.65348 27.1495C3.17689 25.672 2.00592 23.918 1.20746 21.9877C0.409 20.0575 -0.0013106 17.9889 3.14483e-06 15.9C3.14483e-06 11.6831 1.67519 7.63884 4.65702 4.65702C7.63884 1.67519 11.6831 3.14483e-06 15.9 3.14483e-06C17.9889 -0.0013106 20.0575 0.409 21.9878 1.20746C23.918 2.00592 25.672 3.17689 27.1495 4.65348C28.627 6.13006 29.7991 7.88329 30.5988 9.81302C31.3984 11.7428 31.81 13.8111 31.81 15.9C31.81 20.1196 30.1338 24.1664 27.1501 27.1501C24.1664 30.1338 20.1196 31.81 15.9 31.81Z" fill="#FDA003"/>
<path d="M21.42 23.48H10.42C8.71998 23.48 7.08956 22.8047 5.88745 21.6026C4.68534 20.4005 4.01001 18.7701 4.01001 17.07C4.01266 15.3717 4.68917 13.7439 5.89099 12.5439C7.09281 11.344 8.72171 10.67 10.42 10.67H21.42C23.1183 10.67 24.7472 11.344 25.949 12.5439C27.1509 13.7439 27.8274 15.3717 27.83 17.07C27.83 17.9118 27.6642 18.7453 27.3421 19.523C27.0199 20.3007 26.5478 21.0074 25.9526 21.6026C25.3574 22.1978 24.6507 22.67 23.873 22.9921C23.0953 23.3142 22.2618 23.48 21.42 23.48Z" fill="white"/>
<path d="M21.85 21.18H9.96C9.42074 21.18 8.88677 21.0736 8.38868 20.8669C7.8906 20.6602 7.43818 20.3574 7.05732 19.9756C6.67647 19.5938 6.37466 19.1406 6.1692 18.642C5.96375 18.1434 5.85868 17.6092 5.86 17.07C5.86 15.9826 6.29197 14.9397 7.06086 14.1708C7.82976 13.4019 8.87262 12.97 9.96 12.97H21.85C22.9366 12.9726 23.9779 13.4054 24.7462 14.1737C25.5146 14.9421 25.9474 15.9834 25.95 17.07C25.95 18.1583 25.5184 19.2022 24.7497 19.9727C23.9811 20.7431 22.9383 21.1773 21.85 21.18Z" fill="#D6672F"/>
<path d="M5.86002 17.07C5.86002 18.46 5.03 19.59 4 19.59C2.97 19.59 2.15002 18.46 2.15002 17.07C2.15002 15.68 2.98 14.56 4 14.56C5.02 14.56 5.86002 15.69 5.86002 17.07Z" fill="white"/>
<path d="M29.66 17.07C29.66 18.46 28.83 19.59 27.81 19.59C26.79 19.59 25.95 18.46 25.95 17.07C25.95 15.68 26.78 14.56 27.81 14.56C28.84 14.56 29.66 15.69 29.66 17.07Z" fill="white"/>
<path d="M15.9 12.75C15.8672 12.759 15.8327 12.759 15.8 12.75C15.5 12.58 15.43 11.2 15.46 10.5C15.46 9.31002 15.84 7.19003 17.54 6.38003C17.5918 6.35566 17.6511 6.35247 17.7053 6.37115C17.7594 6.38982 17.8042 6.42889 17.83 6.48004C17.8543 6.53188 17.8575 6.59116 17.8389 6.64532C17.8202 6.69947 17.7811 6.74421 17.73 6.77001C17.3489 6.96617 17.0142 7.24172 16.7486 7.57809C16.4829 7.91446 16.2925 8.30385 16.19 8.72003C15.8381 9.9197 15.7934 11.1886 16.06 12.41C16.0892 12.4471 16.1051 12.4929 16.1051 12.54C16.1051 12.5872 16.0892 12.633 16.06 12.67C16.0409 12.6943 16.0166 12.7141 15.9889 12.7279C15.9613 12.7417 15.9309 12.7493 15.9 12.75Z" fill="white"/>
<path d="M19.06 6.54999C19.06 6.83282 18.9761 7.10929 18.819 7.34445C18.6619 7.57961 18.4386 7.76292 18.1773 7.87115C17.916 7.97939 17.6284 8.00769 17.3511 7.95251C17.0737 7.89734 16.8189 7.76115 16.6189 7.56116C16.4189 7.36117 16.2827 7.10637 16.2275 6.82898C16.1723 6.55159 16.2006 6.26408 16.3089 6.00278C16.4171 5.74148 16.6004 5.51812 16.8355 5.36099C17.0707 5.20386 17.3472 5.12 17.63 5.12C18.0093 5.12 18.373 5.27067 18.6412 5.53885C18.9094 5.80703 19.06 6.17073 19.06 6.54999Z" fill="white"/>
<path d="M11.8 17.07C11.8 17.4656 11.6827 17.8523 11.4629 18.1812C11.2432 18.5101 10.9308 18.7664 10.5653 18.9178C10.1999 19.0691 9.79776 19.1088 9.4098 19.0316C9.02184 18.9544 8.66549 18.7639 8.38578 18.4842C8.10608 18.2045 7.91559 17.8481 7.83842 17.4602C7.76125 17.0722 7.80085 16.6701 7.95222 16.3046C8.1036 15.9392 8.35996 15.6268 8.68885 15.4071C9.01775 15.1873 9.40444 15.07 9.8 15.07C10.3304 15.07 10.8391 15.2807 11.2142 15.6558C11.5893 16.0309 11.8 16.5396 11.8 17.07Z" fill="#171130"/>
<path d="M24.03 17.07C24.03 17.4656 23.9127 17.8523 23.693 18.1812C23.4732 18.5101 23.1608 18.7664 22.7954 18.9178C22.4299 19.0691 22.0278 19.1088 21.6398 19.0316C21.2519 18.9544 20.8955 18.7639 20.6158 18.4842C20.3361 18.2045 20.1456 17.8481 20.0685 17.4602C19.9913 17.0722 20.0309 16.6701 20.1823 16.3046C20.3336 15.9392 20.59 15.6268 20.9189 15.4071C21.2478 15.1873 21.6344 15.07 22.03 15.07C22.5604 15.07 23.0692 15.2807 23.4442 15.6558C23.8193 16.0309 24.03 16.5396 24.03 17.07Z" fill="#171130"/>
</g>
<defs>
<clipPath id="clip0_63_14">
<rect width="31.8" height="31.8" fill="white"/>
</clipPath>
</defs>
</svg>
