<svg width="123" height="50" viewBox="0 0 123 50" fill="none" xmlns="http://www.w3.org/2000/svg">
<path d="M15.96 40.84L17 35.24C19.5333 35.2667 21.5733 35.2 23.12 35.04C24.6933 34.8533 25.88 34.52 26.68 34.04C27.5067 33.5333 28.04 32.8267 28.28 31.92C28.5467 30.9867 28.64 29.8 28.56 28.36L27.68 10.72H33.28L34.16 28.64C34.24 30.24 34.4267 31.4667 34.72 32.32C35.0133 33.1733 35.4533 33.7733 36.04 34.12C36.6267 34.44 37.4 34.6 38.36 34.6C39.3467 34.6 40.0533 34.8667 40.48 35.4C40.9333 35.9067 41.16 36.5467 41.16 37.32C41.16 38.1467 40.88 38.84 40.32 39.4C39.76 39.9333 38.9733 40.2 37.96 40.2C36.7867 40.2 35.7333 40.0533 34.8 39.76C33.8667 39.4667 33.0933 38.96 32.48 38.24C31.8667 37.4933 31.4533 36.4933 31.24 35.24H33.04C32.4267 36.5467 31.5867 37.5867 30.52 38.36C29.48 39.1333 28.2267 39.6933 26.76 40.04C25.32 40.4133 23.6933 40.64 21.88 40.72C20.0667 40.8267 18.0933 40.8667 15.96 40.84ZM14.04 31.36L13 27.4C13.9333 27.16 14.6933 26.9467 15.28 26.76C15.8933 26.5733 16.3467 26.3867 16.64 26.2C16.9333 26.0133 17.08 25.8267 17.08 25.64C17.08 25.4 16.96 25.1467 16.72 24.88C16.48 24.6133 16.2133 24.3067 15.92 23.96C15.6267 23.6133 15.36 23.2267 15.12 22.8C14.88 22.3733 14.76 21.88 14.76 21.32C14.76 20.6533 14.9467 20.0267 15.32 19.44C15.6933 18.8267 16.2933 18.24 17.12 17.68C17.9733 17.0933 19.0933 16.52 20.48 15.96L22.2 19.52C21.08 19.9733 20.32 20.3733 19.92 20.72C19.5467 21.04 19.36 21.3467 19.36 21.64C19.36 21.88 19.48 22.16 19.72 22.48C19.96 22.8 20.2267 23.16 20.52 23.56C20.84 23.9333 21.12 24.36 21.36 24.84C21.6 25.2933 21.72 25.7867 21.72 26.32C21.72 26.7467 21.6267 27.1867 21.44 27.64C21.28 28.0933 20.9333 28.5333 20.4 28.96C19.8933 29.3867 19.1333 29.8 18.12 30.2C17.1067 30.6 15.7467 30.9867 14.04 31.36ZM15.96 40.84C13.08 40.84 10.64 40.6133 8.64 40.16C6.66667 39.7333 5.05333 39.12 3.8 38.32C2.57333 37.4933 1.68 36.5333 1.12 35.44C0.56 34.3467 0.28 33.1467 0.28 31.84C0.28 30.9867 0.346667 30.1333 0.48 29.28C0.64 28.4 0.826667 27.5467 1.04 26.72C1.28 25.8933 1.49333 25.1467 1.68 24.48L6.68 25.64C6.57333 26.12 6.45333 26.64 6.32 27.2C6.18667 27.76 6.08 28.3067 6 28.84C5.92 29.3467 5.88 29.8133 5.88 30.24C5.88 31.2267 6.22667 32.1067 6.92 32.88C7.64 33.6267 8.81333 34.2133 10.44 34.64C12.0667 35.04 14.2533 35.24 17 35.24L17.8 39.56L15.96 40.84ZM37.9453 40.2L38.3453 34.6C39.5186 34.6 40.4386 34.52 41.1053 34.36C41.7986 34.2 42.292 33.9067 42.5853 33.48C42.8786 33.0267 43.0253 32.3867 43.0253 31.56C43.0253 30.8133 42.9186 29.92 42.7053 28.88C42.5186 27.84 42.2653 26.76 41.9453 25.64C41.6253 24.52 41.3053 23.4933 40.9853 22.56L46.5053 21.04C46.8253 21.9467 47.1453 23 47.4653 24.2C47.7853 25.4 48.052 26.64 48.2653 27.92C48.5053 29.1733 48.6253 30.3867 48.6253 31.56C48.6253 33.0267 48.4386 34.2667 48.0653 35.28C47.692 36.2667 47.172 37.0933 46.5053 37.76C45.8653 38.4 45.092 38.9067 44.1853 39.28C43.3053 39.6267 42.332 39.8667 41.2653 40C40.1986 40.1333 39.092 40.2 37.9453 40.2ZM42.8653 49.4C42.092 49.4 41.4253 49.1333 40.8653 48.6C40.332 48.0667 40.0653 47.4133 40.0653 46.64C40.0653 45.8667 40.332 45.1867 40.8653 44.6C41.4253 44.04 42.092 43.76 42.8653 43.76C43.6386 43.76 44.292 44.04 44.8253 44.6C45.3853 45.1867 45.6653 45.8667 45.6653 46.64C45.6653 47.4133 45.3853 48.0667 44.8253 48.6C44.292 49.1333 43.6386 49.4 42.8653 49.4ZM64.1547 6.2V3.4L73.5947 0.599998V3.48L64.1547 6.2ZM64.1547 10.4V7.6L73.5947 4.8V7.68L64.1547 10.4ZM87.8016 40.2C85.9349 40.2 84.3882 40.0667 83.1616 39.8C81.9616 39.5067 81.0149 39.0667 80.3216 38.48C79.6282 37.8667 79.1349 37.1067 78.8416 36.2C78.5482 35.2933 78.3749 34.2133 78.3216 32.96L77.4816 10.72H83.0816L83.9216 30.28C83.9749 31.5067 84.1082 32.4267 84.3216 33.04C84.5349 33.6533 84.9349 34.0667 85.5216 34.28C86.1349 34.4933 87.0282 34.6 88.2016 34.6C89.2149 34.6 89.9349 34.8667 90.3616 35.4C90.8149 35.9067 91.0416 36.5467 91.0416 37.32C91.0416 38.1467 90.7616 38.84 90.2016 39.4C89.6416 39.9333 88.8416 40.2 87.8016 40.2ZM66.2816 40.2C65.5616 40.2 64.8282 40.1333 64.0816 40C63.3616 39.8933 62.8549 39.8133 62.5616 39.76L63.3216 33.96C65.1616 34.2 66.9482 34.2533 68.6816 34.12C70.4416 33.96 72.0149 33.5333 73.4016 32.84C74.8149 32.12 75.9349 31.08 76.7616 29.72C77.5882 28.3333 78.0016 26.5467 78.0016 24.36L80.1616 30.64C79.8416 32.4533 79.2949 33.96 78.5216 35.16C77.7749 36.3333 76.8816 37.2667 75.8416 37.96C74.8282 38.6267 73.7482 39.12 72.6016 39.44C71.4549 39.76 70.3349 39.96 69.2416 40.04C68.1482 40.1467 67.1616 40.2 66.2816 40.2ZM74.9616 34.72C74.5616 33.9467 73.9882 33.04 73.2416 32C72.4949 30.9333 71.5749 29.76 70.4816 28.48C69.4149 27.1733 68.1882 25.8 66.8016 24.36C65.4149 22.8933 63.8816 21.3867 62.2016 19.84L65.6816 16.04C68.1616 18.3867 70.1749 20.36 71.7216 21.96C73.2682 23.56 74.4949 24.9067 75.4016 26C76.3349 27.0667 77.0416 27.9867 77.5216 28.76C78.0282 29.5333 78.4549 30.28 78.8016 31L74.9616 34.72ZM104.108 40.32C102.908 40.32 101.668 40.1733 100.388 39.88C99.1348 39.5867 97.9215 39.1467 96.7481 38.56C95.5748 37.9733 94.5215 37.24 93.5881 36.36C92.6548 35.48 91.9081 34.4667 91.3481 33.32C90.8148 32.1467 90.5481 30.8267 90.5481 29.36C90.5481 28.16 90.8015 27.0533 91.3081 26.04C91.8148 25.0267 92.5615 24.2133 93.5481 23.6C94.5615 22.96 95.7881 22.64 97.2281 22.64C98.5881 22.64 99.7615 22.9733 100.748 23.64C101.761 24.28 102.548 25.12 103.108 26.16C103.668 27.1733 103.948 28.24 103.948 29.36C103.948 31.1467 103.508 32.72 102.628 34.08C101.748 35.4133 100.535 36.5333 98.9881 37.44C97.4681 38.3467 95.7481 39.04 93.8281 39.52C91.9081 39.9733 89.9081 40.2 87.8281 40.2L88.2281 34.6C89.7481 34.6 91.0681 34.56 92.1881 34.48C93.3348 34.4 94.3215 34.2267 95.1481 33.96C95.9748 33.6933 96.6948 33.2933 97.3081 32.76C97.9215 32.2267 98.3881 31.64 98.7081 31C99.0548 30.3333 99.2281 29.68 99.2281 29.04C99.2281 28.6133 99.1615 28.2133 99.0281 27.84C98.9215 27.4667 98.7348 27.16 98.4681 26.92C98.2281 26.6533 97.9081 26.52 97.5081 26.52C97.0815 26.52 96.7215 26.6533 96.4281 26.92C96.1615 27.16 95.9481 27.48 95.7881 27.88C95.6548 28.28 95.5881 28.7067 95.5881 29.16C95.5881 30.0933 95.8281 30.9333 96.3081 31.68C96.8148 32.4267 97.4815 33.0533 98.3081 33.56C99.1348 34.0667 100.041 34.4533 101.028 34.72C102.041 34.9867 103.068 35.12 104.108 35.12C104.935 35.12 105.521 34.9867 105.868 34.72C106.215 34.4533 106.388 34.0933 106.388 33.64C106.388 33.32 106.308 32.9867 106.148 32.64C106.015 32.2667 105.708 31.8133 105.228 31.28C104.748 30.7467 104.015 30.0933 103.028 29.32C102.041 28.52 100.721 27.5333 99.0681 26.36C97.4148 25.1867 95.3348 23.76 92.8281 22.08L95.9081 17.72C98.7348 19.72 101.095 21.4667 102.988 22.96C104.908 24.4533 106.455 25.76 107.628 26.88C108.801 28 109.695 28.9867 110.308 29.84C110.948 30.6667 111.375 31.4267 111.588 32.12C111.801 32.8133 111.908 33.5067 111.908 34.2C111.908 35.48 111.601 36.5733 110.988 37.48C110.375 38.3867 109.481 39.0933 108.308 39.6C107.161 40.08 105.761 40.32 104.108 40.32ZM116.573 40L115.813 13.52H121.413L122.173 40H116.573ZM114.373 10.96L113.693 8.16C114.626 8 115.32 7.86666 115.773 7.76C116.253 7.65333 116.76 7.53333 117.293 7.4L116.893 8.4C116.2 8.16 115.533 7.69333 114.893 7C114.28 6.28 113.973 5.46666 113.973 4.56C113.973 3.6 114.186 2.82666 114.613 2.24C115.04 1.65333 115.586 1.22667 116.253 0.959997C116.92 0.693331 117.613 0.559998 118.333 0.559998C118.733 0.559998 119.106 0.586665 119.453 0.639999C119.826 0.693332 120.16 0.773331 120.453 0.879998L120.133 3.76C119.866 3.70667 119.6 3.65333 119.333 3.6C119.066 3.54666 118.773 3.52 118.453 3.52C118.106 3.52 117.786 3.64 117.493 3.88C117.226 4.09333 117.093 4.36 117.093 4.68C117.093 5.13333 117.253 5.53333 117.573 5.88C117.893 6.22667 118.266 6.50667 118.693 6.72C119.146 6.90667 119.52 7.01333 119.813 7.04L117.613 7.28C118.333 7.09333 119.013 6.90667 119.653 6.72C120.293 6.50667 120.893 6.29333 121.453 6.08L122.253 8.76C121.586 9 120.8 9.26667 119.893 9.56C119.013 9.82666 118.093 10.08 117.133 10.32C116.2 10.56 115.28 10.7733 114.373 10.96Z" fill="#4CBCDA"/>
</svg>
