<svg width="152" height="32" viewBox="0 0 152 32" fill="none" xmlns="http://www.w3.org/2000/svg">
<path id="&#216;&#163;&#218;&#190;&#217;&#132;&#216;&#167;&#217;&#139; &#216;&#168;&#217;&#131;" d="M16.96 28.84L18 23.24C20.5333 23.2667 22.5733 23.2 24.12 23.04C25.6933 22.8533 26.88 22.52 27.68 22.04C28.5067 21.5333 29.04 20.8267 29.28 19.92C29.5467 18.9867 29.64 17.8 29.56 16.36L28.68 -1.28H34.28L35.16 16.64C35.24 18.24 35.4267 19.4667 35.72 20.32C36.0133 21.1733 36.4533 21.7733 37.04 22.12C37.6267 22.44 38.4 22.6 39.36 22.6C40.3467 22.6 41.0533 22.8667 41.48 23.4C41.9333 23.9067 42.16 24.5467 42.16 25.32C42.16 26.1467 41.88 26.84 41.32 27.4C40.76 27.9333 39.9733 28.2 38.96 28.2C37.7867 28.2 36.7333 28.0533 35.8 27.76C34.8667 27.4667 34.0933 26.96 33.48 26.24C32.8667 25.4933 32.4533 24.4933 32.24 23.24H34.04C33.4267 24.5467 32.5867 25.5867 31.52 26.36C30.48 27.1333 29.2267 27.6933 27.76 28.04C26.32 28.4133 24.6933 28.64 22.88 28.72C21.0667 28.8267 19.0933 28.8667 16.96 28.84ZM15.04 19.36L14 15.4C14.9333 15.16 15.6933 14.9467 16.28 14.76C16.8933 14.5733 17.3467 14.3867 17.64 14.2C17.9333 14.0133 18.08 13.8267 18.08 13.64C18.08 13.4 17.96 13.1467 17.72 12.88C17.48 12.6133 17.2133 12.3067 16.92 11.96C16.6267 11.6133 16.36 11.2267 16.12 10.8C15.88 10.3733 15.76 9.88 15.76 9.32C15.76 8.65333 15.9467 8.02667 16.32 7.44C16.6933 6.82667 17.2933 6.24 18.12 5.68C18.9733 5.09333 20.0933 4.52 21.48 3.96L23.2 7.52C22.08 7.97333 21.32 8.37333 20.92 8.72C20.5467 9.04 20.36 9.34667 20.36 9.64C20.36 9.88 20.48 10.16 20.72 10.48C20.96 10.8 21.2267 11.16 21.52 11.56C21.84 11.9333 22.12 12.36 22.36 12.84C22.6 13.2933 22.72 13.7867 22.72 14.32C22.72 14.7467 22.6267 15.1867 22.44 15.64C22.28 16.0933 21.9333 16.5333 21.4 16.96C20.8933 17.3867 20.1333 17.8 19.12 18.2C18.1067 18.6 16.7467 18.9867 15.04 19.36ZM16.96 28.84C14.08 28.84 11.64 28.6133 9.64 28.16C7.66667 27.7333 6.05333 27.12 4.8 26.32C3.57333 25.4933 2.68 24.5333 2.12 23.44C1.56 22.3467 1.28 21.1467 1.28 19.84C1.28 18.9867 1.34667 18.1333 1.48 17.28C1.64 16.4 1.82667 15.5467 2.04 14.72C2.28 13.8933 2.49333 13.1467 2.68 12.48L7.68 13.64C7.57333 14.12 7.45333 14.64 7.32 15.2C7.18667 15.76 7.08 16.3067 7 16.84C6.92 17.3467 6.88 17.8133 6.88 18.24C6.88 19.2267 7.22667 20.1067 7.92 20.88C8.64 21.6267 9.81333 22.2133 11.44 22.64C13.0667 23.04 15.2533 23.24 18 23.24L18.8 27.56L16.96 28.84ZM38.9453 28.2L39.3453 22.6C40.5186 22.6 41.4386 22.52 42.1053 22.36C42.7986 22.2 43.292 21.9067 43.5853 21.48C43.8786 21.0267 44.0253 20.3867 44.0253 19.56C44.0253 18.8133 43.9186 17.92 43.7053 16.88C43.5186 15.84 43.2653 14.76 42.9453 13.64C42.6253 12.52 42.3053 11.4933 41.9853 10.56L47.5053 9.04C47.8253 9.94667 48.1453 11 48.4653 12.2C48.7853 13.4 49.052 14.64 49.2653 15.92C49.5053 17.1733 49.6253 18.3867 49.6253 19.56C49.6253 21.0267 49.4386 22.2667 49.0653 23.28C48.692 24.2667 48.172 25.0933 47.5053 25.76C46.8653 26.4 46.092 26.9067 45.1853 27.28C44.3053 27.6267 43.332 27.8667 42.2653 28C41.1986 28.1333 40.092 28.2 38.9453 28.2ZM43.8653 37.4C43.092 37.4 42.4253 37.1333 41.8653 36.6C41.332 36.0667 41.0653 35.4133 41.0653 34.64C41.0653 33.8667 41.332 33.1867 41.8653 32.6C42.4253 32.04 43.092 31.76 43.8653 31.76C44.6386 31.76 45.292 32.04 45.8253 32.6C46.3853 33.1867 46.6653 33.8667 46.6653 34.64C46.6653 35.4133 46.3853 36.0667 45.8253 36.6C45.292 37.1333 44.6386 37.4 43.8653 37.4ZM65.1547 -5.8V-8.6L74.5947 -11.4V-8.52L65.1547 -5.8ZM65.1547 -1.6V-4.4L74.5947 -7.2V-4.32L65.1547 -1.6ZM88.8016 28.2C86.9349 28.2 85.3882 28.0667 84.1616 27.8C82.9616 27.5067 82.0149 27.0667 81.3216 26.48C80.6282 25.8667 80.1349 25.1067 79.8416 24.2C79.5482 23.2933 79.3749 22.2133 79.3216 20.96L78.4816 -1.28H84.0816L84.9216 18.28C84.9749 19.5067 85.1082 20.4267 85.3216 21.04C85.5349 21.6533 85.9349 22.0667 86.5216 22.28C87.1349 22.4933 88.0282 22.6 89.2016 22.6C90.2149 22.6 90.9349 22.8667 91.3616 23.4C91.8149 23.9067 92.0416 24.5467 92.0416 25.32C92.0416 26.1467 91.7616 26.84 91.2016 27.4C90.6416 27.9333 89.8416 28.2 88.8016 28.2ZM67.2816 28.2C66.5616 28.2 65.8282 28.1333 65.0816 28C64.3616 27.8933 63.8549 27.8133 63.5616 27.76L64.3216 21.96C66.1616 22.2 67.9482 22.2533 69.6816 22.12C71.4416 21.96 73.0149 21.5333 74.4016 20.84C75.8149 20.12 76.9349 19.08 77.7616 17.72C78.5882 16.3333 79.0016 14.5467 79.0016 12.36L81.1616 18.64C80.8416 20.4533 80.2949 21.96 79.5216 23.16C78.7749 24.3333 77.8816 25.2667 76.8416 25.96C75.8282 26.6267 74.7482 27.12 73.6016 27.44C72.4549 27.76 71.3349 27.96 70.2416 28.04C69.1482 28.1467 68.1616 28.2 67.2816 28.2ZM75.9616 22.72C75.5616 21.9467 74.9882 21.04 74.2416 20C73.4949 18.9333 72.5749 17.76 71.4816 16.48C70.4149 15.1733 69.1882 13.8 67.8016 12.36C66.4149 10.8933 64.8816 9.38667 63.2016 7.84L66.6816 4.04C69.1616 6.38667 71.1749 8.36 72.7216 9.96C74.2682 11.56 75.4949 12.9067 76.4016 14C77.3349 15.0667 78.0416 15.9867 78.5216 16.76C79.0282 17.5333 79.4549 18.28 79.8016 19L75.9616 22.72ZM105.108 28.32C103.908 28.32 102.668 28.1733 101.388 27.88C100.135 27.5867 98.9215 27.1467 97.7481 26.56C96.5748 25.9733 95.5215 25.24 94.5881 24.36C93.6548 23.48 92.9081 22.4667 92.3481 21.32C91.8148 20.1467 91.5481 18.8267 91.5481 17.36C91.5481 16.16 91.8015 15.0533 92.3081 14.04C92.8148 13.0267 93.5615 12.2133 94.5481 11.6C95.5615 10.96 96.7881 10.64 98.2281 10.64C99.5881 10.64 100.761 10.9733 101.748 11.64C102.761 12.28 103.548 13.12 104.108 14.16C104.668 15.1733 104.948 16.24 104.948 17.36C104.948 19.1467 104.508 20.72 103.628 22.08C102.748 23.4133 101.535 24.5333 99.9881 25.44C98.4681 26.3467 96.7481 27.04 94.8281 27.52C92.9081 27.9733 90.9081 28.2 88.8281 28.2L89.2281 22.6C90.7481 22.6 92.0681 22.56 93.1881 22.48C94.3348 22.4 95.3215 22.2267 96.1481 21.96C96.9748 21.6933 97.6948 21.2933 98.3081 20.76C98.9215 20.2267 99.3881 19.64 99.7081 19C100.055 18.3333 100.228 17.68 100.228 17.04C100.228 16.6133 100.161 16.2133 100.028 15.84C99.9215 15.4667 99.7348 15.16 99.4681 14.92C99.2281 14.6533 98.9081 14.52 98.5081 14.52C98.0815 14.52 97.7215 14.6533 97.4281 14.92C97.1615 15.16 96.9481 15.48 96.7881 15.88C96.6548 16.28 96.5881 16.7067 96.5881 17.16C96.5881 18.0933 96.8281 18.9333 97.3081 19.68C97.8148 20.4267 98.4815 21.0533 99.3081 21.56C100.135 22.0667 101.041 22.4533 102.028 22.72C103.041 22.9867 104.068 23.12 105.108 23.12C105.935 23.12 106.521 22.9867 106.868 22.72C107.215 22.4533 107.388 22.0933 107.388 21.64C107.388 21.32 107.308 20.9867 107.148 20.64C107.015 20.2667 106.708 19.8133 106.228 19.28C105.748 18.7467 105.015 18.0933 104.028 17.32C103.041 16.52 101.721 15.5333 100.068 14.36C98.4148 13.1867 96.3348 11.76 93.8281 10.08L96.9081 5.72C99.7348 7.72 102.095 9.46667 103.988 10.96C105.908 12.4533 107.455 13.76 108.628 14.88C109.801 16 110.695 16.9867 111.308 17.84C111.948 18.6667 112.375 19.4267 112.588 20.12C112.801 20.8133 112.908 21.5067 112.908 22.2C112.908 23.48 112.601 24.5733 111.988 25.48C111.375 26.3867 110.481 27.0933 109.308 27.6C108.161 28.08 106.761 28.32 105.108 28.32ZM117.573 28L116.813 1.52H122.413L123.173 28H117.573ZM115.373 -1.04L114.693 -3.84C115.626 -4 116.32 -4.13334 116.773 -4.24C117.253 -4.34667 117.76 -4.46667 118.293 -4.6L117.893 -3.6C117.2 -3.84 116.533 -4.30667 115.893 -5C115.28 -5.72 114.973 -6.53334 114.973 -7.44C114.973 -8.4 115.186 -9.17334 115.613 -9.76C116.04 -10.3467 116.586 -10.7733 117.253 -11.04C117.92 -11.3067 118.613 -11.44 119.333 -11.44C119.733 -11.44 120.106 -11.4133 120.453 -11.36C120.826 -11.3067 121.16 -11.2267 121.453 -11.12L121.133 -8.24C120.866 -8.29333 120.6 -8.34667 120.333 -8.4C120.066 -8.45334 119.773 -8.48 119.453 -8.48C119.106 -8.48 118.786 -8.36 118.493 -8.12C118.226 -7.90667 118.093 -7.64 118.093 -7.32C118.093 -6.86667 118.253 -6.46667 118.573 -6.12C118.893 -5.77333 119.266 -5.49333 119.693 -5.28C120.146 -5.09333 120.52 -4.98667 120.813 -4.96L118.613 -4.72C119.333 -4.90667 120.013 -5.09333 120.653 -5.28C121.293 -5.49333 121.893 -5.70667 122.453 -5.92L123.253 -3.24C122.586 -3 121.8 -2.73333 120.893 -2.44C120.013 -2.17334 119.093 -1.92 118.133 -1.68C117.2 -1.44 116.28 -1.22667 115.373 -1.04Z" fill="#4CBCDA"/>
</svg>
