<svg width="10" height="10" viewBox="0 0 10 10" fill="none" xmlns="http://www.w3.org/2000/svg">
<path d="M0.485691 4.98512L8.56978 0.725637C8.61121 0.697514 8.6598 0.681508 8.70987 0.679417C8.75994 0.677326 8.80954 0.689232 8.85317 0.713803C8.8968 0.738374 8.93264 0.774643 8.9567 0.818475C8.98076 0.862307 8.99211 0.911972 8.98935 0.961866L9.13357 9.14457C9.13809 9.19434 9.1285 9.24437 9.106 9.28902C9.0835 9.33368 9.04896 9.37115 9.00622 9.39724C8.96348 9.42333 8.91433 9.43698 8.86422 9.43666C8.81411 9.43633 8.76498 9.42205 8.72259 9.3954L0.493846 5.44783C0.452893 5.42495 0.418576 5.39174 0.394488 5.35156C0.3704 5.31138 0.357338 5.26563 0.356513 5.21882C0.355688 5.17202 0.367129 5.12579 0.389786 5.08479C0.412443 5.04379 0.445569 5.00943 0.485691 4.98512Z" fill="white"/>
</svg>
